<mxfile host="app.diagrams.net" modified="2022-09-01T13:53:14.555Z" agent="5.0 (X11)" etag="rLHe9sFIrqjbXfZFukjn" version="20.2.7" type="github">
  <diagram id="xTmBv3ccLJSK2_tgwIwj" name="Page-1">
    <mxGraphModel dx="1422" dy="787" grid="1" gridSize="10" guides="1" tooltips="1" connect="1" arrows="1" fold="1" page="1" pageScale="1" pageWidth="850" pageHeight="1100" math="0" shadow="0">
      <root>
        <mxCell id="0" />
        <mxCell id="1" parent="0" />
        <mxCell id="XouJuU0pJWpATqYN4p0Z-27" style="edgeStyle=orthogonalEdgeStyle;orthogonalLoop=1;jettySize=auto;html=1;entryX=1;entryY=0.25;entryDx=0;entryDy=0;shadow=0;curved=1;strokeWidth=4;strokeColor=#FFCB8F;" edge="1" parent="1" source="XouJuU0pJWpATqYN4p0Z-1" target="XouJuU0pJWpATqYN4p0Z-26">
          <mxGeometry relative="1" as="geometry" />
        </mxCell>
        <mxCell id="XouJuU0pJWpATqYN4p0Z-1" value="&lt;div align=&quot;center&quot;&gt;Node1&lt;/div&gt;" style="rounded=1;whiteSpace=wrap;html=1;align=center;verticalAlign=top;" vertex="1" parent="1">
          <mxGeometry x="540" y="190" width="220" height="250" as="geometry" />
        </mxCell>
        <mxCell id="XouJuU0pJWpATqYN4p0Z-2" value="&lt;div&gt;Schedulers&lt;/div&gt;" style="rounded=1;whiteSpace=wrap;html=1;verticalAlign=top;" vertex="1" parent="1">
          <mxGeometry x="555" y="225" width="190" height="90" as="geometry" />
        </mxCell>
        <mxCell id="XouJuU0pJWpATqYN4p0Z-3" value="" style="rounded=1;whiteSpace=wrap;html=1;fillColor=#ffe6cc;strokeColor=#d79b00;" vertex="1" parent="1">
          <mxGeometry x="565" y="265" width="40" height="40" as="geometry" />
        </mxCell>
        <mxCell id="XouJuU0pJWpATqYN4p0Z-7" value="" style="rounded=1;whiteSpace=wrap;html=1;fillColor=#ffe6cc;strokeColor=#d79b00;" vertex="1" parent="1">
          <mxGeometry x="610" y="265" width="40" height="40" as="geometry" />
        </mxCell>
        <mxCell id="XouJuU0pJWpATqYN4p0Z-8" value="" style="rounded=1;whiteSpace=wrap;html=1;fillColor=#ffe6cc;strokeColor=#d79b00;" vertex="1" parent="1">
          <mxGeometry x="685" y="265" width="40" height="40" as="geometry" />
        </mxCell>
        <mxCell id="XouJuU0pJWpATqYN4p0Z-9" value="&lt;div&gt;Workers&lt;br&gt;&lt;/div&gt;" style="rounded=1;whiteSpace=wrap;html=1;verticalAlign=top;" vertex="1" parent="1">
          <mxGeometry x="555" y="330" width="190" height="90" as="geometry" />
        </mxCell>
        <mxCell id="XouJuU0pJWpATqYN4p0Z-10" value="" style="rounded=1;whiteSpace=wrap;html=1;fillColor=#dae8fc;strokeColor=#6c8ebf;" vertex="1" parent="1">
          <mxGeometry x="565" y="370" width="40" height="40" as="geometry" />
        </mxCell>
        <mxCell id="XouJuU0pJWpATqYN4p0Z-11" value="" style="rounded=1;whiteSpace=wrap;html=1;fillColor=#dae8fc;strokeColor=#6c8ebf;" vertex="1" parent="1">
          <mxGeometry x="610" y="370" width="40" height="40" as="geometry" />
        </mxCell>
        <mxCell id="XouJuU0pJWpATqYN4p0Z-12" value="" style="rounded=1;whiteSpace=wrap;html=1;fillColor=#dae8fc;strokeColor=#6c8ebf;" vertex="1" parent="1">
          <mxGeometry x="685" y="370" width="40" height="40" as="geometry" />
        </mxCell>
        <mxCell id="XouJuU0pJWpATqYN4p0Z-13" value="&lt;div align=&quot;center&quot;&gt;NodeN&lt;/div&gt;" style="rounded=1;whiteSpace=wrap;html=1;align=center;verticalAlign=top;" vertex="1" parent="1">
          <mxGeometry x="540" y="490" width="220" height="250" as="geometry" />
        </mxCell>
        <mxCell id="XouJuU0pJWpATqYN4p0Z-14" value="&lt;div&gt;Schedulers&lt;/div&gt;" style="rounded=1;whiteSpace=wrap;html=1;verticalAlign=top;" vertex="1" parent="1">
          <mxGeometry x="555" y="525" width="190" height="90" as="geometry" />
        </mxCell>
        <mxCell id="XouJuU0pJWpATqYN4p0Z-15" value="" style="rounded=1;whiteSpace=wrap;html=1;fillColor=#ffe6cc;strokeColor=#d79b00;" vertex="1" parent="1">
          <mxGeometry x="565" y="565" width="40" height="40" as="geometry" />
        </mxCell>
        <mxCell id="XouJuU0pJWpATqYN4p0Z-16" value="" style="rounded=1;whiteSpace=wrap;html=1;fillColor=#ffe6cc;strokeColor=#d79b00;" vertex="1" parent="1">
          <mxGeometry x="610" y="565" width="40" height="40" as="geometry" />
        </mxCell>
        <mxCell id="XouJuU0pJWpATqYN4p0Z-17" value="" style="rounded=1;whiteSpace=wrap;html=1;fillColor=#ffe6cc;strokeColor=#d79b00;" vertex="1" parent="1">
          <mxGeometry x="685" y="565" width="40" height="40" as="geometry" />
        </mxCell>
        <mxCell id="XouJuU0pJWpATqYN4p0Z-18" value="&lt;div&gt;Workers&lt;br&gt;&lt;/div&gt;" style="rounded=1;whiteSpace=wrap;html=1;verticalAlign=top;" vertex="1" parent="1">
          <mxGeometry x="555" y="630" width="190" height="90" as="geometry" />
        </mxCell>
        <mxCell id="XouJuU0pJWpATqYN4p0Z-19" value="" style="rounded=1;whiteSpace=wrap;html=1;fillColor=#dae8fc;strokeColor=#6c8ebf;" vertex="1" parent="1">
          <mxGeometry x="565" y="670" width="40" height="40" as="geometry" />
        </mxCell>
        <mxCell id="XouJuU0pJWpATqYN4p0Z-20" value="" style="rounded=1;whiteSpace=wrap;html=1;fillColor=#dae8fc;strokeColor=#6c8ebf;" vertex="1" parent="1">
          <mxGeometry x="610" y="670" width="40" height="40" as="geometry" />
        </mxCell>
        <mxCell id="XouJuU0pJWpATqYN4p0Z-21" value="" style="rounded=1;whiteSpace=wrap;html=1;fillColor=#dae8fc;strokeColor=#6c8ebf;" vertex="1" parent="1">
          <mxGeometry x="685" y="670" width="40" height="40" as="geometry" />
        </mxCell>
        <mxCell id="XouJuU0pJWpATqYN4p0Z-23" value="FIFO" style="swimlane;childLayout=stackLayout;resizeParent=1;resizeParentMax=0;startSize=20;" vertex="1" parent="1">
          <mxGeometry x="120" y="265" width="360" height="470" as="geometry" />
        </mxCell>
        <mxCell id="XouJuU0pJWpATqYN4p0Z-24" value="Created_At" style="swimlane;startSize=20;" vertex="1" parent="XouJuU0pJWpATqYN4p0Z-23">
          <mxGeometry y="20" width="120" height="450" as="geometry" />
        </mxCell>
        <mxCell id="XouJuU0pJWpATqYN4p0Z-25" value="Type" style="swimlane;startSize=20;" vertex="1" parent="XouJuU0pJWpATqYN4p0Z-23">
          <mxGeometry x="120" y="20" width="120" height="450" as="geometry" />
        </mxCell>
        <mxCell id="XouJuU0pJWpATqYN4p0Z-26" value="State" style="swimlane;startSize=20;" vertex="1" parent="XouJuU0pJWpATqYN4p0Z-23">
          <mxGeometry x="240" y="20" width="120" height="450" as="geometry" />
        </mxCell>
        <mxCell id="XouJuU0pJWpATqYN4p0Z-28" style="edgeStyle=orthogonalEdgeStyle;curved=1;orthogonalLoop=1;jettySize=auto;html=1;entryX=0.011;entryY=0.644;entryDx=0;entryDy=0;entryPerimeter=0;shadow=0;strokeColor=#A6D2FF;strokeWidth=4;" edge="1" parent="1" target="XouJuU0pJWpATqYN4p0Z-18">
          <mxGeometry relative="1" as="geometry">
            <mxPoint x="480" y="560" as="sourcePoint" />
            <Array as="points">
              <mxPoint x="510" y="560" />
              <mxPoint x="510" y="688" />
            </Array>
          </mxGeometry>
        </mxCell>
        <mxCell id="XouJuU0pJWpATqYN4p0Z-29" style="edgeStyle=orthogonalEdgeStyle;orthogonalLoop=1;jettySize=auto;html=1;entryX=1;entryY=0.5;entryDx=0;entryDy=0;shadow=0;curved=1;strokeWidth=4;strokeColor=#FFCB8F;exitX=0;exitY=0.5;exitDx=0;exitDy=0;" edge="1" parent="1" source="XouJuU0pJWpATqYN4p0Z-14" target="XouJuU0pJWpATqYN4p0Z-26">
          <mxGeometry relative="1" as="geometry">
            <mxPoint x="550" y="325" as="sourcePoint" />
            <mxPoint x="490" y="407.5" as="targetPoint" />
          </mxGeometry>
        </mxCell>
        <mxCell id="XouJuU0pJWpATqYN4p0Z-31" style="edgeStyle=orthogonalEdgeStyle;curved=1;orthogonalLoop=1;jettySize=auto;html=1;entryX=0;entryY=0.667;entryDx=0;entryDy=0;entryPerimeter=0;shadow=0;strokeColor=#A6D2FF;strokeWidth=4;" edge="1" parent="1" target="XouJuU0pJWpATqYN4p0Z-9">
          <mxGeometry relative="1" as="geometry">
            <mxPoint x="477.91" y="410" as="sourcePoint" />
            <mxPoint x="554.9999999999999" y="537.96" as="targetPoint" />
          </mxGeometry>
        </mxCell>
        <mxCell id="XouJuU0pJWpATqYN4p0Z-33" value="Distributed background tasks executor" style="text;html=1;strokeColor=none;fillColor=none;align=center;verticalAlign=middle;whiteSpace=wrap;rounded=0;fontSize=19;fontStyle=1" vertex="1" parent="1">
          <mxGeometry x="265" y="60" width="320" height="70" as="geometry" />
        </mxCell>
      </root>
    </mxGraphModel>
  </diagram>
</mxfile>
